<?xml version="1.0" encoding="utf-8"?>
<!-- Generator: Adobe Illustrator 26.0.2, SVG Export Plug-In . SVG Version: 6.00 Build 0)  -->
<svg version="1.1" id="Layer_1" xmlns="http://www.w3.org/2000/svg" xmlns:xlink="http://www.w3.org/1999/xlink" x="0px" y="0px"
	 viewBox="0 0 100 100" style="enable-background:new 0 0 100 100;" xml:space="preserve">
<g>
	<g>
		<path d="M3.73,27.65C3.58,42.74,4.5,57.78,6.48,72.74c0.65,4.9,2.97,9.2,8.08,10.61c4.76,1.31,9.87-0.9,12.42-5.06
			c7.62-12.43,8.31-28.69,16.88-40.65c-6.83-1.85-13.67-3.7-20.5-5.55c0.56,16.73-0.41,33.35,2.6,49.92
			c1.29,7.11,10.48,9.89,16.16,6.57c7.79-4.54,10.33-16.33,13.35-24.27c3.23-8.48,6.23-17.05,9.04-25.68c-7.07,0-14.14,0-21.21,0
			c0.78,2.96,0.45,6.25,0.51,9.32c0.08,4.2,0.16,8.41,0.24,12.61c0.14,7.52-0.56,15.71,1.35,23.05c2.46,9.42,15.18,10.45,20.11,2.63
			c9.12-14.5,8.58-31.74,15.6-46.9C74.4,38.46,67.7,37.58,61,36.7c4.16,12.5,2.48,25.77,3.74,38.69c0.57,5.91,4.64,11,11,11
			c5.5,0,11.58-5.05,11-11c-1.45-14.88,0.28-30.12-4.52-44.54c-2.71-8.14-15.85-11.82-20.11-2.63c-3.72,8.04-5.89,16.3-7.84,24.91
			c-1.75,7.7-3.51,15.25-7.76,21.99c6.7,0.88,13.4,1.75,20.11,2.63c-1.52-5.83-0.52-14.58-0.64-21.08
			c-0.15-7.82,0.55-16.28-1.46-23.9c-2.87-10.88-17.95-10.02-21.21,0c-2.33,7.14-4.78,14.24-7.39,21.29
			c-2.2,5.94-3.98,13.72-7.77,18.84c1.32-1.32,2.63-2.63,3.95-3.95c-0.36,0.21-0.71,0.42-1.07,0.62c5.39,2.19,10.77,4.38,16.16,6.57
			c-2.63-14.49-1.32-29.43-1.81-44.07c-0.38-11.46-14.28-14.23-20.5-5.55c-4.36,6.09-6.71,14.13-9.38,21.08
			c-2.43,6.34-3.96,13.79-7.5,19.57c6.83,1.85,13.67,3.7,20.5,5.55c-1.98-14.96-2.9-30-2.75-45.09
			C25.87,13.49,3.87,13.48,3.73,27.65L3.73,27.65z"/>
	</g>
</g>
</svg>
