<?xml version="1.0" encoding="utf-8"?>
<!-- Generator: Adobe Illustrator 26.0.2, SVG Export Plug-In . SVG Version: 6.00 Build 0)  -->
<svg version="1.1" id="Layer_1" xmlns="http://www.w3.org/2000/svg" xmlns:xlink="http://www.w3.org/1999/xlink" x="0px" y="0px"
	 viewBox="0 0 100 100" style="enable-background:new 0 0 100 100;" xml:space="preserve">
<g>
	<g>
		<path d="M23.28,42.16c18.46,0.39,36.92,0.08,55.36-0.93c-1.43-5.28-2.86-10.56-4.29-15.84c-3.72,2.62-8.19,3.18-12.57,4.1
			c-5.43,1.14-10.86,2.24-16.31,3.29c-10.57,2.05-21.17,3.93-31.79,5.68c-4.11,0.68-6.66,5.55-6.09,9.33
			c0.67,4.46,4.02,6.9,8.35,7.37c23.11,2.52,46.5,0.56,68.93-5.52c-2.18-5.18-4.37-10.36-6.55-15.54c-4.4,2.74-9.51,3.9-14.42,5.39
			c-5.57,1.69-11.13,3.39-16.7,5.08c-11.13,3.39-22.27,6.77-33.4,10.16c-8.92,2.71-7.62,17.04,2.26,16.7
			c22.45-0.79,44.78-3.87,66.6-9.2c10.62-2.59,6.12-18.99-4.52-16.39c-20.39,4.98-41.1,7.85-62.08,8.59
			c0.75,5.57,1.51,11.13,2.26,16.7c11.75-3.57,23.51-7.15,35.26-10.72c10.91-3.32,23.57-5.54,33.33-11.62
			c8.07-5.03,2.94-18.11-6.55-15.54c-21.07,5.72-42.71,7.29-64.41,4.92c0.75,5.57,1.51,11.13,2.26,16.7
			C29.47,53,40.71,51,51.91,48.8c9.98-1.95,22.5-2.73,31.02-8.73c6.34-4.46,4.83-16.34-4.29-15.84c-18.44,1.01-36.9,1.32-55.36,0.93
			C12.34,24.93,12.34,41.93,23.28,42.16L23.28,42.16z"/>
	</g>
</g>
</svg>
